<svg width="30" height="27" viewBox="0 0 30 27" fill="none" xmlns="http://www.w3.org/2000/svg">
<path d="M25.9484 4.38101C25.3173 3.74954 24.5678 3.24861 23.743 2.90684C22.9182 2.56507 22.0341 2.38916 21.1413 2.38916C20.2485 2.38916 19.3644 2.56507 18.5395 2.90684C17.7147 3.24861 16.9653 3.74954 16.3341 4.38101L15.0242 5.69093L13.7143 4.38101C12.4394 3.10607 10.7102 2.38982 8.90714 2.38982C7.1041 2.38982 5.37492 3.10607 4.09998 4.38101C2.82505 5.65595 2.1088 7.38513 2.1088 9.18816C2.1088 10.9912 2.82505 12.7204 4.09998 13.9953L5.4099 15.3052L15.0242 24.9195L24.6385 15.3052L25.9484 13.9953C26.5799 13.3641 27.0808 12.6147 27.4226 11.7899C27.7644 10.9651 27.9403 10.081 27.9403 9.18816C27.9403 8.29533 27.7644 7.41125 27.4226 6.58642C27.0808 5.7616 26.5799 5.01219 25.9484 4.38101Z" fill="#FF725F" stroke="#FF725F" stroke-width="2.80976" stroke-linecap="round" stroke-linejoin="round"/>
</svg>
