<svg width="92" height="19" viewBox="0 0 92 19" fill="none" xmlns="http://www.w3.org/2000/svg">
<path d="M45.5573 1.42474C45.7452 1.06859 46.2553 1.06859 46.4432 1.42474L48.6407 5.58969C48.7131 5.72703 48.8452 5.82299 48.9982 5.84947L53.6384 6.65233C54.0352 6.72098 54.1928 7.20609 53.9121 7.49486L50.6301 10.8718C50.5218 10.9832 50.4714 11.1384 50.4935 11.2921L51.1638 15.9533C51.2211 16.3519 50.8085 16.6517 50.4471 16.474L46.2212 14.3961C46.0819 14.3276 45.9186 14.3276 45.7793 14.3961L41.5534 16.474C41.192 16.6517 40.7794 16.3519 40.8367 15.9533L41.507 11.2921C41.5291 11.1384 41.4787 10.9832 41.3705 10.8718L38.0884 7.49486C37.8077 7.20609 37.9654 6.72098 38.3622 6.65233L43.0023 5.84947C43.1553 5.82299 43.2874 5.72703 43.3599 5.58969L45.5573 1.42474Z" fill="#FFD78A"/>
<path d="M27.5276 1.42474C27.7155 1.06859 28.2256 1.06859 28.4135 1.42474L30.6109 5.58969C30.6834 5.72703 30.8155 5.82299 30.9685 5.84947L35.6086 6.65233C36.0054 6.72098 36.163 7.20609 35.8824 7.49486L32.6003 10.8718C32.4921 10.9832 32.4417 11.1384 32.4638 11.2921L33.1341 15.9533C33.1914 16.3519 32.7788 16.6517 32.4174 16.474L28.1915 14.3961C28.0522 14.3276 27.8889 14.3276 27.7496 14.3961L23.5237 16.474C23.1623 16.6517 22.7497 16.3519 22.807 15.9533L23.4773 11.2921C23.4994 11.1384 23.449 10.9832 23.3407 10.8718L20.0587 7.49486C19.778 7.20609 19.9356 6.72098 20.3324 6.65233L24.9726 5.84947C25.1256 5.82299 25.2577 5.72703 25.3301 5.58969L27.5276 1.42474Z" fill="#FFD78A"/>
<path d="M9.49863 1.42474C9.68654 1.06859 10.1966 1.06859 10.3845 1.42474L12.582 5.58969C12.6544 5.72703 12.7865 5.82299 12.9395 5.84947L17.5797 6.65233C17.9765 6.72098 18.1341 7.20609 17.8534 7.49486L14.5714 10.8718C14.4632 10.9832 14.4127 11.1384 14.4348 11.2921L15.1051 15.9533C15.1624 16.3519 14.7498 16.6517 14.3884 16.474L10.1626 14.3961C10.0232 14.3276 9.85995 14.3276 9.72059 14.3961L5.49472 16.474C5.13336 16.6517 4.7207 16.3519 4.77802 15.9533L5.44834 11.2921C5.47045 11.1384 5.42 10.9832 5.31177 10.8718L2.02971 7.49486C1.74906 7.20609 1.90668 6.72098 2.30347 6.65233L6.94362 5.84947C7.09664 5.82299 7.22871 5.72703 7.30118 5.58969L9.49863 1.42474Z" fill="#FFD78A"/>
<path d="M63.5863 1.42474C63.7742 1.06859 64.2843 1.06859 64.4722 1.42474L66.6696 5.58969C66.7421 5.72703 66.8742 5.82299 67.0272 5.84947L71.6673 6.65233C72.0641 6.72098 72.2217 7.20609 71.9411 7.49486L68.659 10.8718C68.5508 10.9832 68.5004 11.1384 68.5225 11.2921L69.1928 15.9533C69.2501 16.3519 68.8374 16.6517 68.4761 16.474L64.2502 14.3961C64.1109 14.3276 63.9476 14.3276 63.8082 14.3961L59.5824 16.474C59.221 16.6517 58.8084 16.3519 58.8657 15.9533L59.536 11.2921C59.5581 11.1384 59.5076 10.9832 59.3994 10.8718L56.1174 7.49486C55.8367 7.20609 55.9943 6.72098 56.3911 6.65233L61.0313 5.84947C61.1843 5.82299 61.3164 5.72703 61.3888 5.58969L63.5863 1.42474Z" fill="#FFD78A"/>
<path d="M81.616 1.42474C81.8039 1.06859 82.314 1.06859 82.5019 1.42474L84.6993 5.58969C84.7718 5.72703 84.9039 5.82299 85.0569 5.84947L89.6971 6.65233C90.0938 6.72098 90.2515 7.20609 89.9708 7.49486L86.6888 10.8718C86.5805 10.9832 86.5301 11.1384 86.5522 11.2921L87.2225 15.9533C87.2798 16.3519 86.8672 16.6517 86.5058 16.474L82.2799 14.3961C82.1406 14.3276 81.9773 14.3276 81.838 14.3961L77.6121 16.474C77.2507 16.6517 76.8381 16.3519 76.8954 15.9533L77.5657 11.2921C77.5878 11.1384 77.5374 10.9832 77.4291 10.8718L74.1471 7.49486C73.8664 7.20609 74.0241 6.72098 74.4208 6.65233L79.061 5.84947C79.214 5.82299 79.3461 5.72703 79.4186 5.58969L81.616 1.42474Z" fill="#EEF5F7"/>
<path d="M77.6122 16.474L81.7792 14.425C81.9505 14.3408 82.0591 14.1665 82.0591 13.9756V1.34165C82.0591 1.1462 81.7973 1.08138 81.7061 1.25424L79.4187 5.58969C79.3462 5.72703 79.2141 5.82299 79.0611 5.84947L74.421 6.65233C74.0242 6.72098 73.8665 7.20609 74.1472 7.49486L77.4293 10.8718C77.5375 10.9832 77.5879 11.1384 77.5658 11.2921L76.8955 15.9533C76.8382 16.3519 77.2508 16.6517 77.6122 16.474Z" fill="#FFD78A"/>
</svg>
